# AST/ASF file generated using VICON BodyLanguage
# -----------------------------------------------
:version 1.10
:name VICON
:units
  mass 1.0
  length 0.45
  angle deg
:documentation
   .ast/.asf automatically generated from VICON data using
   VICON BodyBuilder and BodyLanguage model FoxedUp or BRILLIANT.MOD
:root
   order TX TY TZ RX RY RZ
   axis XYZ
   position 0 0 0  
   orientation 0 0 0 
:bonedata
  begin
     id 1 
     name lhipjoint
     direction 0.702568 -0.596508 0.388042 
     length 2.56661 
     axis 0 0 0  XYZ
  end
  begin
     id 2 
     name lfemur
     direction 0.34202 -0.939693 0  
     length 6.58374  
     axis 0 0 20  XYZ
    dof rx ry rz
    limits (-160.0 20.0)
           (-70.0 70.0)
           (-60.0 70.0)
  end
  begin
     id 3 
     name ltibia
     direction 0.34202 -0.939693 0   
     length 6.62538   
     axis 0 0 20   XYZ
    dof rx
    limits (-10.0 170.0)
  end
  begin
     id 4 
     name lfoot
     direction 0.10455 -0.287249 0.952133   
     length 2.26699   
     axis -90 7.62852e-016 20   XYZ
    dof rx rz
    limits (-45.0 90.0)
           (-70.0 20.0)
  end
  begin
     id 5 
     name ltoes
     direction 1.53572e-011 -4.22322e-011 1   
     length 1.12949   
     axis -90 7.62852e-016 20   XYZ
    dof rx
    limits (-90.0 20.0)
  end
  begin
     id 6 
     name rhipjoint
     direction -0.728055 -0.574632 0.373811   
     length 2.66432  
     axis 0 0 0  XYZ 
  end
  begin
     id 7 
     name rfemur
     direction -0.34202 -0.939693 0   
     length 6.66732   
     axis 0 0 -20   XYZ
    dof rx ry rz
    limits (-160.0 20.0)
           (-70.0 70.0)
           (-70.0 60.0)
  end
  begin
     id 8 
     name rtibia
     direction -0.34202 -0.939693 0   
     length 6.59288   
     axis 0 0 -20   XYZ
    dof rx
    limits (-10.0 170.0)
 end
 begin
     id 9 
     name rfoot
     direction -0.119193 -0.327479 0.93731   
     length 2.38061  
     axis -90 -7.62852e-016 -20   XYZ
    dof rx rz
    limits (-45.0 90.0)
           (-20.0 70.0)
  end
  begin
     id 10 
     name rtoes
     direction -1.53547e-011 -4.21827e-011 1   
     length 1.17899   
     axis -90 -7.62852e-016 -20   XYZ
    dof rx
    limits (-90.0 20.0)
  end
  begin
     id 11 
     name lowerback
     direction -0.000416114 0.999912 -0.0132284   
     length 2.12109   
     axis 0 0 0   XYZ
    dof rx ry rz
    limits (-20.0 45.0)
           (-30.0 30.0)
           (-30.0 30.0)
  end
  begin
     id 12 
     name upperback
     direction -0.00136371 0.99809 0.0617608   
     length 2.10067   
     axis 0 0 0   XYZ
    dof rx ry rz
    limits (-20.0 45.0)
           (-30.0 30.0)
           (-30.0 30.0)
  end
  begin
     id 13 
     name thorax
     direction -3.43026e-005 0.997776 0.0666515   
     length 2.10618   
     axis 0 0 0   XYZ
    dof rx ry rz
    limits (-20.0 45.0)
           (-30.0 30.0)
           (-30.0 30.0)
  end
  begin
     id 14 
     name lowerneck
     direction 0.0398646 0.998418 0.0396592   
     length 1.83817   
     axis 0 0 0   XYZ
    dof rx ry rz
    limits (-20.0 45.0)
           (-30.0 30.0)
           (-30.0 30.0)
  end
  begin
     id 15 
     name upperneck
     direction -0.0367268 0.961527 -0.272244   
     length 1.81975   
     axis 0 0 0   XYZ
    dof rx ry rz
    limits (-20.0 45.0)
           (-30.0 30.0)
           (-30.0 30.0)
  end
  begin
     id 16
     name head
     direction -0.0182665 0.99536 -0.0944669  
     length 1.86026  
     axis 0 0 0   XYZ
    dof rx ry rz
    limits (-20.0 45.0)
           (-30.0 30.0)
           (-30.0 30.0)
  end
  begin
     id 17 
     name lclavicle
     direction 0.924239 0.361045 0.124212  
     length 3.26878  
     axis 0 0 0   XYZ
    dof ry rz
    limits (-20.0 10.0)
           (0.0 20.0)
  end
  begin
     id 18 
     name lhumerus
     direction 1 -4.48968e-011 -2.56583e-027   
     length 4.58538   
     axis 180 -30 -90   XYZ
    dof rx ry rz
    limits (-60.0 90.0)
           (-90.0 90.0)
           (-90.0 90.0)
  end
  begin
     id 19
     name lradius
     direction 1 -4.4898e-011 -5.50375e-027   
     length 2.68935   
     axis 180 -30 -90   XYZ
    dof rx
    limits (-10.0 170.0)
  end
  begin
     id 20
     name lwrist
     direction 1 -4.48939e-011 -1.48955e-026   
     length 1.34468   
     axis 9.0955e-015 90 90   XYZ
    dof ry
    limits (-180.0 0.0)
 end
  begin
     id 21 
     name lhand
     direction 1 -4.48936e-011 -2.97907e-026   
     length 0.585058   
     axis 1.90115e-014 90 90   XYZ
    dof rx rz
    limits (-90.0 90.0)
           (-45.0 45.0)
  end
  begin
     id 22 
     name lfingers
     direction 1 -4.49082e-011 -5.96235e-026   
     length 0.471689   
     axis 3.80223e-014 90 90   XYZ
    dof rx
    limits (0.0 90.0)
  end
  begin
     id 23
     name lthumb
     direction 0.707107 -6.3489e-011 0.707107   
     length 0.677253   
     axis -90 45 -3.84942e-014   XYZ
    dof rx rz
    limits (-45.0 45.0)
           (-45.0 45.0)
  end
  begin
     id 24 
     name rclavicle
     direction -0.923098 0.371783 0.0983239   
     length 3.19656  
     axis 0 0 0   XYZ 
    dof ry rz
    limits (-10.0 20.0)
           (-20.0 0.0)
  end
  begin
     id 25 
     name rhumerus
     direction -1 -4.48976e-011 -2.5492e-027  
     length 4.4745   
     axis 180 30 90   XYZ
    dof rx ry rz
    limits (-90.0 60.0)
           (-90.0 90.0)
           (-90.0 90.0)
  end
  begin
     id 26 
     name rradius
     direction -1 -4.48941e-011 -4.36555e-027   
     length 2.93896   
     axis 180 30 90   XYZ
    dof rx
    limits (-10.0 170.0)
  end
  begin
     id 27 
     name rwrist
     direction -1 -4.49044e-011 -1.49032e-026   
     length 1.46948   
     axis 9.0955e-015 -90 -90   XYZ
    dof ry
    limits (-180.0 0.0)
  end
  begin
     id 28
     name rhand
     direction -1 -4.48826e-011 -2.97749e-026   
     length 0.405092   
     axis 1.90115e-014 -90 -90   XYZ
    dof rx rz
    limits (-90.0 90.0)
           (-45.0 45.0)
  end
  begin
     id 29
     name rfingers
     direction -1 -4.49209e-011 -5.96602e-026   
     length 0.326596   
     axis 3.80223e-014 -90 -90   XYZ
    dof rx
    limits (0.0 90.0)
  end
  begin
     id 30
     name rthumb
     direction -0.707107 -6.34776e-011 0.707107   
     length 0.468928   
     axis -90 -45 3.84942e-014   XYZ
    dof rx rz
    limits (-45.0 45.0)
           (-45.0 45.0)
  end
:hierarchy
  begin
    root lhipjoint rhipjoint lowerback
    lhipjoint lfemur
    lfemur ltibia
    ltibia lfoot
    lfoot ltoes
    rhipjoint rfemur
    rfemur rtibia
    rtibia rfoot
    rfoot rtoes
    lowerback upperback
    upperback thorax
    thorax lowerneck lclavicle rclavicle
    lowerneck upperneck
    upperneck head
    lclavicle lhumerus
    lhumerus lradius
    lradius lwrist
    lwrist lhand lthumb
    lhand lfingers
    rclavicle rhumerus
    rhumerus rradius
    rradius rwrist
    rwrist rhand rthumb
    rhand rfingers
  end

#!OML:ASF H:\Punching\Project 1\Capture day 1\Session 1\female.ASF
:FULLY-SPECIFIED
:DEGREES
210
root 0.397049 15.7343 8.18785 11.7302 12.3859 -1.7206
lowerback -0.649354 0.825338 1.79116
upperback -5.66965 1.12812 -0.874062
thorax -5.44875 0.459854 -1.95541
lowerneck -11.6653 -3.11754 6.21881
upperneck 32.2609 -7.66453 4.89121
head 12.7158 -1.95665 -0.257127
rclavicle -3.3666e-014 -1.78906e-014
rhumerus 12.9282 24.4073 -49.7325
rradius 88.7797
rwrist -18.7882
rhand -6.54259 -11.9448
rfingers 7.12502
rthumb 19.3107 -41.006
lclavicle -3.3666e-014 -1.78906e-014
lhumerus -43.7173 -30.9009 100.629
lradius 110.436
lwrist 4.64313
lhand -16.7829 12.3893
lfingers 7.12502
lthumb 9.44484 42.1576
rfemur -27.6416 8.56556 1.04149
rtibia 18.4651
rfoot 9.74138 -24.5153
rtoes -11.4644
lfemur -3.97274 -14.8378 -9.60804
ltibia 5.66515
lfoot -12.1861 11.9365
ltoes -9.23024
211
root 0.489697 15.7481 8.11418 11.8598 11.9284 -1.71522
lowerback -0.680349 0.901677 1.71464
upperback -5.66056 1.23455 -0.719388
thorax -5.42071 0.520965 -1.75543
lowerneck -11.7495 -3.10802 6.13467
upperneck 31.8298 -7.5413 4.70742
head 12.5419 -1.96052 -0.298484
rclavicle 3.23336e-015 1.47101e-014
rhumerus 10.4894 25.194 -51.563
rradius 88.8084
rwrist -19.1509
rhand -6.62469 -12.2133
rfingers 7.12502
rthumb 19.2318 -41.2824
lclavicle 3.23336e-015 1.47101e-014
lhumerus -43.4491 -31.5398 101.03
lradius 110.031
lwrist 4.57462
lhand -16.8815 12.4319
lfingers 7.12502
lthumb 9.3497 42.2046
rfemur -27.6853 9.95079 0.242085
rtibia 17.6695
rfoot 9.65148 -26.256
rtoes -9.58083
lfemur -4.7182 -14.3493 -10.0351
ltibia 6.69127
lfoot -12.5947 11.6785
ltoes -8.75175
212
root 0.577308 15.7593 8.04428 11.9795 11.4919 -1.66961
lowerback -0.71651 0.96345 1.57112
upperback -5.65416 1.31926 -0.576569
thorax -5.39537 0.574033 -1.5294
lowerneck -11.7968 -3.09148 6.05455
upperneck 31.4131 -7.40577 4.51787
head 12.3682 -1.95837 -0.339353
rclavicle -1.85367e-014 1.19271e-015
rhumerus 8.00259 25.9567 -53.4702
rradius 88.7558
rwrist -19.4107
rhand -6.64554 -12.4854
rfingers 7.12502
rthumb 19.2117 -41.5565
lclavicle -1.85367e-014 1.19271e-015
lhumerus -43.2275 -32.1844 101.367
lradius 109.643
lwrist 4.57247
lhand -16.8824 12.4795
lfingers 7.12502
lthumb 9.34882 42.2522
rfemur -27.74 11.0321 -0.407987
rtibia 17.168
rfoot 8.99015 -27.5801
rtoes -7.77598
lfemur -5.45558 -13.8966 -10.4965
ltibia 7.72927
lfoot -12.9808 11.4785
ltoes -8.27107
213
root 0.659239 15.7637 7.97776 12.0916 11.0762 -1.58758
lowerback -0.749126 1.00854 1.36762
upperback -5.65742 1.37996 -0.444051
thorax -5.38501 0.617455 -1.27989
lowerneck -11.8128 -3.06682 5.97345
upperneck 31.0288 -7.25799 4.32352
head 12.2033 -1.9495 -0.378814
rclavicle 1.39615e-014 4.77083e-015
rhumerus 5.47905 26.7062 -55.4581
rradius 88.6126
rwrist -19.5879
rhand -6.59562 -12.779
rfingers 7.12502
rthumb 19.2597 -41.8453
lclavicle 1.39615e-014 4.77083e-015
lhumerus -43.0428 -32.8445 101.649
lradius 109.249
lwrist 4.62251
lhand -16.8132 12.5354
lfingers 7.12502
lthumb 9.41559 42.3051
rfemur -27.809 11.6744 -0.839623
rtibia 16.9848
rfoot 7.918 -28.3577
rtoes -6.12969
lfemur -6.16401 -13.4705 -10.9827
ltibia 8.72964
lfoot -13.3247 11.3162
ltoes -7.80903
214
root 0.736722 15.7719 7.91455 12.1929 10.6762 -1.48841
lowerback -0.779652 1.03943 1.12911
upperback -5.66698 1.42074 -0.317757
thorax -5.38452 0.652329 -1.01674
lowerneck -11.8178 -3.03282 5.89365
upperneck 30.6917 -7.09887 4.11995
head 12.0568 -1.93337 -0.419702
rclavicle -1.12096e-014 -6.95746e-015
rhumerus 2.94204 27.4423 -57.5153
rradius 88.3758
rwrist -19.7441
rhand -6.50748 -13.0983
rfingers 7.12502
rthumb 19.3445 -42.1561
lclavicle -1.12096e-014 -6.95746e-015
lhumerus -42.9012 -33.5177 101.888
lradius 108.843
lwrist 4.67708
lhand -16.6973 12.6071
lfingers 7.12502
lthumb 9.52741 42.3717
rfemur -27.8628 11.8253 -0.986383
rtibia 17.0951
rfoot 6.59846 -28.6041
rtoes -4.67135
lfemur -6.83037 -13.0839 -11.4804
ltibia 9.66318
lfoot -13.6099 11.203
ltoes -7.3658
215
root 0.8097 15.779 7.8542 12.2773 10.282 -1.3897
lowerback -0.79976 1.06315 0.883746
upperback -5.67968 1.45174 -0.197394
thorax -5.39425 0.682434 -0.755908
lowerneck -11.8366 -2.98992 5.81654
upperneck 30.4155 -6.93221 3.90526
head 11.9388 -1.91064 -0.464229
rclavicle 2.93068e-014 4.07509e-015
rhumerus 0.387526 28.1498 -59.6401
rradius 88.0561
rwrist -19.9407
rhand -6.41494 -13.4256
rfingers 7.12502
rthumb 19.4334 -42.4745
lclavicle 2.93068e-014 4.07509e-015
lhumerus -42.8069 -34.2051 102.097
lradius 108.411
lwrist 4.69049
lhand -16.5601 12.6808
lfingers 7.12502
lthumb 9.65982 42.4393
rfemur -27.905 11.5417 -0.853544
rtibia 17.4676
rfoot 5.17852 -28.4512
rtoes -3.37675
lfemur -7.44786 -12.705 -11.9729
ltibia 10.5358
lfoot -13.8506 11.1109
ltoes -6.95124
216
root 0.878883 15.7853 7.7963 12.3332 9.88406 -1.31239
lowerback -0.797916 1.08451 0.661658
upperback -5.68793 1.48018 -0.0801365
thorax -5.41185 0.710063 -0.511687
lowerneck -11.8944 -2.93699 5.75395
upperneck 30.2054 -6.75931 3.67162
head 11.8553 -1.88103 -0.518181
rclavicle 1.66063e-014 1.23246e-014
rhumerus -2.1757 28.8166 -61.8178
rradius 87.6707
rwrist -20.2435
rhand -6.29111 -13.7615
rfingers 7.12502
rthumb 19.5525 -42.7983
lclavicle 1.66063e-014 1.23246e-014
lhumerus -42.756 -34.9059 102.282
lradius 107.949
lwrist 4.6554
lhand -16.4533 12.7438
lfingers 7.12502
lthumb 9.76286 42.4975
rfemur -27.8985 10.9135 -0.457283
rtibia 18.0013
rfoot 3.73521 -28.0436
rtoes -2.23414
lfemur -7.97939 -12.6076 -12.403
ltibia 11.2817
lfoot -14.0009 11.3148
ltoes -6.55183
217
root 0.945262 15.7907 7.74079 12.3501 9.46485 -1.26817
lowerback -0.775877 1.11013 0.486312
upperback -5.68212 1.51512 0.0314836
thorax -5.42531 0.738591 -0.299971
lowerneck -11.9868 -2.87132 5.71663
upperneck 30.0432 -6.57615 3.41823
head 11.7975 -1.84298 -0.583035
rclavicle -2.01704e-014 -1.83876e-014
rhumerus -4.74529 29.4248 -64.0449
rradius 87.2343
rwrist -20.7004
rhand -6.15293 -14.0997
rfingers 7.12502
rthumb 19.6853 -43.123
lclavicle -2.01704e-014 -1.83876e-014
lhumerus -42.7319 -35.5989 102.427
lradius 107.462
lwrist 4.64651
lhand -16.3407 12.7849
lfingers 7.12502
lthumb 9.87151 42.5334
rfemur -27.8606 10.022 0.17162
rtibia 18.7015
rfoot 2.29397 -27.4404
rtoes -1.28658
lfemur -8.45671 -12.5406 -12.7969
ltibia 12.0165
lfoot -14.1518 11.5835
ltoes -6.16144
218
root 1.00962 15.7952 7.68758 12.326 9.01732 -1.26691
lowerback -0.730506 1.14693 0.382227
upperback -5.66308 1.56611 0.13086
thorax -5.43635 0.771361 -0.141762
lowerneck -12.1039 -2.79668 5.71537
upperneck 29.9117 -6.39017 3.15169
head 11.7563 -1.79908 -0.658877
rclavicle 2.64768e-014 -5.76476e-015
rhumerus -7.33624 29.9457 -66.3236
rradius 86.7604
rwrist -21.3134
rhand -5.96738 -14.4493
rfingers 7.12502
rthumb 19.8637 -43.4542
lclavicle 2.64768e-014 -5.76476e-015
lhumerus -42.7602 -36.2781 102.542
lradius 106.966
lwrist 4.67064
lhand -16.2229 12.8093
lfingers 7.12502
lthumb 9.98514 42.5524
rfemur -27.7883 8.93579 0.996633
rtibia 19.5258
rfoot 0.85932 -26.641
rtoes -0.599324
lfemur -8.87992 -12.4911 -13.1478
ltibia 12.753
lfoot -14.3222 11.9098
ltoes -5.76725
219
root 1.0724 15.7984 7.63644 12.2602 8.52995 -1.3141
lowerback -0.659949 1.19817 0.361165
upperback -5.62971 1.63774 0.215846
thorax -5.44435 0.810003 -0.046111
lowerneck -12.2301 -2.71201 5.74815
upperneck 29.7832 -6.19997 2.88578
head 11.7185 -1.74897 -0.739617
rclavicle 2.04304e-014 -1.95057e-015
rhumerus -9.9333 30.3655 -68.6446
rradius 86.2457
rwrist -22.0636
rhand -5.69988 -14.8369
rfingers 7.12502
rthumb 20.1208 -43.8149
lclavicle 2.04304e-014 -1.95057e-015
lhumerus -42.8459 -36.9338 102.632
lradius 106.462
lwrist 4.72598
lhand -16.1123 12.8149
lfingers 7.12502
lthumb 10.0918 42.5529
rfemur -27.6859 7.71746 1.97917
rtibia 20.442
rfoot -0.551577 -25.6684
rtoes -0.235237
lfemur -9.25072 -12.4466 -13.4528
ltibia 13.5053
lfoot -14.53 12.2892
ltoes -5.35637
220
root 1.13383 15.8005 7.58733 12.1601 8.00929 -1.41376
lowerback -0.574791 1.26103 0.431075
upperback -5.57918 1.72643 0.285673
thorax -5.43974 0.852386 -0.0178842
lowerneck -12.3581 -2.61667 5.81662
upperneck 29.6304 -6.00573 2.63067
head 11.6723 -1.69275 -0.821432
rclavicle 2.44036e-014 -5.67837e-015
rhumerus -12.5025 30.6794 -70.9924
rradius 85.6739
rwrist -22.9295
rhand -5.39202 -15.2718
rfingers 7.12502
rthumb 20.4167 -44.2185
lclavicle 2.44036e-014 -5.67837e-015
lhumerus -42.987 -37.5509 102.691
lradius 105.955
lwrist 4.79222
lhand -15.9784 12.8163
lfingers 7.12502
lthumb 10.221 42.548
rfemur -27.5521 6.42126 3.08176
rtibia 21.4236
rfoot -1.9146 -24.5453
rtoes -0.247512
lfemur -9.5834 -12.3934 -13.7048
ltibia 14.2861
lfoot -14.786 12.6999
ltoes -4.93058
221
root 1.19351 15.8016 7.53938 12.055 7.47194 -1.5608
lowerback -0.482102 1.32785 0.583896
upperback -5.52822 1.82214 0.342251
thorax -5.43601 0.893987 -0.0502817
lowerneck -12.4673 -2.5112 5.90475
upperneck 29.4356 -5.8067 2.40363
head 11.6078 -1.63078 -0.894547
rclavicle 2.24421e-014 3.11719e-014
rhumerus -15.0254 30.8922 -73.3568
rradius 85.0195
rwrist -23.8629
rhand -5.05175 -15.7286
rfingers 7.12502
rthumb 20.7437 -44.6399
lclavicle 2.24421e-014 3.11719e-014
lhumerus -43.1979 -38.1131 102.732
lradius 105.45
lwrist 4.84891
lhand -15.7991 12.8255
lfingers 7.12502
lthumb 10.394 42.5486
rfemur -27.4107 5.08497 4.26119
rtibia 22.4537
rfoot -3.19778 -23.2888
rtoes -0.668884
lfemur -9.92184 -12.3139 -13.8968
ltibia 15.1044
lfoot -15.0901 13.1062
ltoes -4.48832
222
root 1.25134 15.8016 7.49306 11.9449 6.91124 -1.75506
lowerback -0.386773 1.39754 0.809232
upperback -5.47497 1.92358 0.391835
thorax -5.42854 0.934894 -0.130817
lowerneck -12.5441 -2.39553 6.0024
upperneck 29.1837 -5.59959 2.20886
head 11.517 -1.56295 -0.954882
rclavicle 1.62986e-014 8.84592e-015
rhumerus -17.4637 31.0144 -75.7127
rradius 84.259
rwrist -24.8279
rhand -4.68276 -16.1918
rfingers 7.12502
rthumb 21.0982 -45.064
lclavicle 1.62986e-014 8.84592e-015
lhumerus -43.4766 -38.6038 102.757
lradius 104.95
lwrist 4.87706
lhand -15.579 12.8386
lfingers 7.12502
lthumb 10.6063 42.5509
rfemur -27.2612 3.77221 5.48666
rtibia 23.5238
rfoot -4.38939 -21.9224
rtoes -1.47254
lfemur -10.2616 -12.2023 -14.0301
ltibia 15.9588
lfoot -15.4432 13.5064
ltoes -4.02794
